# xmcd
#
# Track frame offsets:
#	300
#	13260
#	27241
#	43609
#	55654
#	67760
#	81140
#	92398
#	107213
#	117395
#	130432
#	147154
#	160921
#	174714
#	186555
#	199289
#	210206
#	228660
#
# Disc length: 3214 seconds
#
# Revision: 1
# Processed by: cddbd v1.5.1PL0 Copyright (c) Steve Scherf et al.
# Submitted via: audiograbber 1.83.01
#
DISCID=fd0c8a12
DTITLE=John Lee Hooker - Dusty Road - CD #1- I'm In The Mood (Pazzazz- IMPORT)
DYEAR=2004
DGENRE=Blues
TTITLE0=Mambo Chillun
TTITLE1=Time Is Marchin'
TTITLE2=My First Wife left Me
TTITLE3=Boogie Chillun
TTITLE4=Mama, You've Got A Daughter
TTITLE5=I'm So Excited
TTITLE6=No Shoes
TTITLE7=Moanin' Blues
TTITLE8=Dimples
TTITLE9=Hobo Blues
TTITLE10=Trying To Find A Woman
TTITLE11=Every Night
TTITLE12=Baby Lee
TTITLE13=I Love You Honey
TTITLE14=Crawlin' Kingsnake
TTITLE15=Dusty Road
TTITLE16=House Rent Boogie
TTITLE17=I'm In The Mood
EXTD=2004 Dusty Road - 2 CD Set (IMPORT) \nby Pazzazz (Atom Music Ltdl, Germany
EXTD=)
EXTT0=
EXTT1=
EXTT2=
EXTT3=
EXTT4=
EXTT5=
EXTT6=
EXTT7=
EXTT8=
EXTT9=
EXTT10=
EXTT11=
EXTT12=
EXTT13=
EXTT14=
EXTT15=
EXTT16=
EXTT17=
PLAYORDER=
